<svg width="320" height="320" fill="none" xmlns="http://www.w3.org/2000/svg">
  <rect width="320" height="320" rx="32" fill="#FF732E"/>
  <path d="M256.575 215.338a10.338 10.338 0 0 1 3.207 7.751 10.347 10.347 0 0 1-3.59 7.582 115.005 115.005 0 0 1-154.335-7.528 115.001 115.001 0 0 1-7.528-154.335 10.543 10.543 0 0 1 15.429-.383l146.817 146.913Z" stroke="#fff" stroke-width="12" stroke-linecap="round" stroke-linejoin="round"/>
  <path d="M237.313 196.075a76.669 76.669 0 0 1-129.419-54.714 76.666 76.666 0 0 1 21.127-53.77M183.167 141.833l-52.709 52.709" stroke="#fff" stroke-width="12" stroke-linecap="round" stroke-linejoin="round"/>
  <path d="M183.167 217.063v-75.23h-75.229" stroke="#fff" stroke-width="12" stroke-linecap="round" stroke-linejoin="round"/>
</svg>